<?xml version="1.0" standalone="no"?>
<!DOCTYPE svg PUBLIC "-//W3C//DTD SVG 20010904//EN"
 "http://www.w3.org/TR/2001/REC-SVG-20010904/DTD/svg10.dtd">
<svg version="1.0" xmlns="http://www.w3.org/2000/svg"
 width="256.000000pt" height="256.000000pt" viewBox="0 0 256.000000 256.000000"
 preserveAspectRatio="xMidYMid meet">
<metadata>
Created by potrace 1.11, written by Peter Selinger 2001-2013
</metadata>
<g transform="translate(0.000000,256.000000) scale(0.100000,-0.100000)"
fill="#000000" stroke="none">
<path d="M1118 2256 c-181 -58 -343 -133 -435 -202 -48 -36 -44 -60 10 -55 24
3 22 -3 -20 -59 -131 -170 -194 -283 -191 -340 0 -19 -17 -89 -40 -155 -60
-175 -76 -304 -40 -326 7 -5 5 -21 -5 -50 -38 -103 -68 -233 -65 -283 3 -47 5
-51 28 -51 17 0 26 -7 28 -20 8 -53 14 -66 37 -75 16 -6 25 -17 25 -32 1 -106
87 -200 265 -288 184 -92 250 -105 525 -105 270 0 386 19 570 92 127 50 192
90 260 156 41 41 44 48 41 90 -1 27 4 58 13 76 9 16 16 48 16 70 0 31 5 43 21
52 21 11 22 16 16 138 -5 112 -22 232 -42 314 -6 23 -4 27 14 27 18 0 21 6 21
44 0 65 -71 289 -147 464 -3 7 3 12 15 12 32 0 35 16 11 62 -51 102 -218 275
-345 358 -117 76 -287 131 -404 129 -25 0 -107 -20 -182 -43z m347 -16 c146
-42 263 -112 385 -231 56 -54 136 -154 159 -197 12 -22 11 -23 -8 -13 -32 18
-34 -3 -5 -66 14 -32 34 -83 44 -113 10 -30 32 -95 50 -144 17 -49 35 -109 39
-132 l8 -43 -30 6 c-28 6 -30 4 -23 -18 20 -68 46 -254 52 -362 6 -106 5 -124
-10 -136 -10 -8 -16 -29 -16 -55 0 -22 -7 -54 -16 -71 -8 -16 -17 -52 -19 -80
-4 -54 -11 -61 -104 -127 -161 -113 -496 -186 -801 -175 -193 7 -301 30 -449
93 -170 73 -230 135 -246 252 -6 44 -11 55 -31 62 -20 8 -24 16 -24 54 0 46
-12 63 -41 58 -14 -2 -15 3 -8 43 12 66 70 265 86 297 21 43 17 61 -13 55 -26
-5 -26 -4 -19 40 10 68 42 188 76 282 16 46 27 92 24 102 -3 10 6 41 21 71 32
63 165 258 211 309 18 20 33 40 33 44 0 7 -28 2 -67 -11 -70 -25 130 91 221
128 28 12 105 41 171 65 113 41 125 43 200 39 44 -3 111 -14 150 -26z"/>
<path d="M860 1639 c-45 -18 -60 -39 -60 -86 0 -55 12 -78 50 -98 79 -41 160
8 160 96 0 22 -10 41 -34 65 -36 36 -68 42 -116 23z"/>
<path d="M1663 1635 c-37 -16 -53 -42 -53 -85 0 -72 55 -118 127 -107 47 8 72
33 80 80 8 53 -4 85 -40 107 -37 23 -70 25 -114 5z"/>
<path d="M1187 1476 c-48 -13 -116 -38 -150 -55 -68 -34 -158 -99 -164 -117
-2 -6 31 -47 74 -91 118 -121 222 -164 394 -164 150 -1 285 62 393 184 46 51
53 64 45 80 -19 35 -161 116 -259 148 -130 43 -217 47 -333 15z"/>
</g>
</svg>
